
      <svg data-logo="logo" xmlns="http://www.w3.org/2000/svg" viewBox="0 0 344 37">
        <g id="logogram" transform="translate(0, 1) rotate(0) "><path d="M16.2628 0.600006H37.3443L21.8451 23.5729H0.76355L16.2628 0.600006Z" fill="#030213"/><path d="M17.1859 25.702L11.1827 34.6H33.2643L48.7635 11.6271H32.4659L22.9699 25.702H17.1859Z" fill="#000000"/></g>
        <g id="logotype" transform="translate(55, 5.5)"><path fill="#000000" d="M24.73 1.90L24.73 6.13L12.86 6.13L12.86 11.35L24.03 11.35L24.03 15.27L12.86 15.27L12.86 25L8.10 25L8.10 1.90L24.73 1.90ZM36.24 25.45L36.24 25.45Q33.13 25.45 31.04 24.27Q28.96 23.07 27.93 20.99Q26.90 18.91 26.90 16.25L26.90 16.25Q26.90 13.62 27.93 11.54Q28.96 9.46 31.04 8.25Q33.13 7.04 36.24 7.04L36.24 7.04Q39.32 7.04 41.40 8.25Q43.48 9.46 44.50 11.54Q45.52 13.62 45.52 16.25L45.52 16.25Q45.52 18.91 44.50 20.99Q43.48 23.07 41.40 24.27Q39.32 25.45 36.24 25.45ZM36.24 21.32L36.24 21.32Q37.75 21.32 38.78 20.77Q39.81 20.20 40.32 19.09Q40.83 17.96 40.83 16.25L40.83 16.25Q40.83 14.57 40.32 13.45Q39.81 12.33 38.78 11.75Q37.75 11.17 36.24 11.17L36.24 11.17Q34.70 11.17 33.67 11.75Q32.64 12.33 32.11 13.45Q31.59 14.57 31.59 16.25L31.59 16.25Q31.59 17.96 32.11 19.09Q32.64 20.20 33.67 20.77Q34.70 21.32 36.24 21.32ZM61.93 7.57L60.32 11.70Q60.01 11.56 59.62 11.44Q59.23 11.31 58.64 11.31L58.64 11.31Q57.17 11.31 56.02 12.07Q54.86 12.82 54.20 14.15Q53.53 15.48 53.53 17.16L53.53 17.16L53.53 25.14L48.88 25.14L48.88 7.64L53.53 7.64L53.53 10.19Q54.20 9.49 54.98 8.79Q55.77 8.09 56.82 7.64Q57.87 7.18 59.38 7.18L59.38 7.18Q60.11 7.18 60.78 7.29Q61.44 7.39 61.93 7.57L61.93 7.57ZM81.78 25.14L77.09 25.14L77.09 16.46Q77.09 14.18 76.32 12.84Q75.55 11.49 73.20 11.49L73.20 11.49Q71.77 11.49 70.51 12.26Q69.25 13.03 68.48 14.41Q67.71 15.79 67.71 17.58L67.71 17.58L67.71 25.14L63.05 25.14L63.05 7.64L67.71 7.64L67.71 10.61Q68.27 9.81 69.09 9.02Q69.91 8.23 71.10 7.71Q72.29 7.18 74.01 7.18L74.01 7.18Q76.67 7.18 78.36 8.23Q80.06 9.28 80.94 11.28L80.94 11.28Q81.78 10.05 82.77 9.14Q83.77 8.23 85.05 7.71Q86.33 7.18 88.04 7.18L88.04 7.18Q91.09 7.18 92.77 8.32Q94.45 9.46 95.13 11.47Q95.81 13.48 95.81 16.14L95.81 16.14L95.81 25.14L91.16 25.14L91.16 16.46Q91.16 14.18 90.39 12.84Q89.62 11.49 87.27 11.49L87.27 11.49Q85.84 11.49 84.58 12.26Q83.32 13.03 82.55 14.41Q81.78 15.79 81.78 17.58L81.78 17.58L81.78 25.14ZM128.36 14.64L128.36 18.14Q128.33 20.13 127.29 21.83Q126.26 23.53 124.14 24.55Q122.03 25.56 118.74 25.56L118.74 25.56Q115.45 25.56 113.33 24.53Q111.21 23.50 110.18 21.80Q109.15 20.10 109.15 18.07L109.15 18.07Q109.15 16.32 109.93 14.90Q110.72 13.48 112.37 12.57L112.37 12.57Q111.07 11.77 110.42 10.58Q109.78 9.39 109.78 7.99L109.78 7.99Q109.78 6.10 110.83 4.59Q111.88 3.09 113.87 2.18Q115.87 1.27 118.74 1.27L118.74 1.27Q120.84 1.27 122.52 1.85Q124.20 2.42 125.33 3.46Q126.47 4.49 126.93 5.89L126.93 5.89L122.41 7.08Q121.99 6.38 121.06 5.96Q120.14 5.54 118.74 5.54L118.74 5.54Q116.71 5.54 115.64 6.36Q114.57 7.18 114.57 8.44L114.57 8.44Q114.57 9.42 115.66 10.26Q116.74 11.10 118.74 11.10L118.74 11.10L130.50 11.10L130.50 14.64L128.36 14.64ZM113.94 17.93L113.94 17.93Q113.94 19.19 115.17 20.20Q116.39 21.22 118.74 21.22L118.74 21.22Q119.93 21.22 121.05 20.85Q122.17 20.48 122.92 19.73Q123.67 18.98 123.71 17.89L123.71 17.89L123.71 14.64L118.74 14.64Q116.36 14.64 115.15 15.62Q113.94 16.60 113.94 17.93ZM160.07 1.90L160.07 6.13L148.21 6.13L148.21 11.35L159.37 11.35L159.37 15.27L148.21 15.27L148.21 25L143.44 25L143.44 1.90L160.07 1.90ZM161.86 7.50L166.51 7.50L166.51 16.39Q166.51 18.84 167.33 20.15Q168.16 21.46 170.47 21.46L170.47 21.46Q171.90 21.46 173.04 20.64Q174.18 19.82 174.88 18.47Q175.58 17.13 175.58 15.48L175.58 15.48L175.58 7.50L180.23 7.50L180.23 25L175.58 25L175.58 22.45Q174.91 23.14 174.07 23.88Q173.23 24.61 172.11 25.09Q170.99 25.56 169.49 25.56L169.49 25.56Q166.62 25.56 164.95 24.39Q163.29 23.21 162.57 21.17Q161.86 19.12 161.86 16.49L161.86 16.49L161.86 7.50ZM202.60 25.14L197.91 25.14L197.91 16.25Q197.91 13.80 197.10 12.49Q196.30 11.17 193.99 11.17L193.99 11.17Q192.59 11.17 191.41 12.00Q190.24 12.82 189.56 14.17Q188.88 15.51 188.88 17.16L188.88 17.16L188.88 25.14L184.22 25.14L184.22 7.64L188.88 7.64L188.88 10.19Q189.54 9.49 190.38 8.76Q191.22 8.02 192.32 7.55Q193.43 7.08 194.93 7.08L194.93 7.08Q197.84 7.08 199.52 8.25Q201.20 9.42 201.90 11.47Q202.60 13.52 202.60 16.14L202.60 16.14L202.60 25.14ZM223.25 12.50L218.56 13.27Q218.00 12.33 217.03 11.75Q216.07 11.17 214.67 11.17L214.67 11.17Q213.31 11.17 212.31 11.77Q211.31 12.36 210.78 13.50Q210.26 14.64 210.26 16.25L210.26 16.25Q210.26 18.70 211.43 20.01Q212.61 21.32 214.67 21.32L214.67 21.32Q216.07 21.32 217.03 20.77Q218.00 20.20 218.56 19.26L218.56 19.26L223.31 19.93Q222.75 21.54 221.60 22.78Q220.45 24.02 218.71 24.74Q216.98 25.45 214.67 25.45L214.67 25.45Q211.66 25.45 209.65 24.27Q207.64 23.07 206.60 20.99Q205.57 18.91 205.57 16.25L205.57 16.25Q205.57 13.62 206.60 11.54Q207.64 9.46 209.65 8.25Q211.66 7.04 214.67 7.04L214.67 7.04Q216.98 7.04 218.70 7.74Q220.41 8.44 221.55 9.69Q222.69 10.93 223.25 12.50L223.25 12.50ZM236.97 20.91L237.56 24.72Q237.25 24.89 236.70 25.05Q236.16 25.21 235.58 25.32Q235.00 25.42 234.52 25.45L234.52 25.45Q231.09 25.59 229.34 23.90Q227.59 22.20 227.59 18.49L227.59 18.49L227.59 11.42L224.93 11.42L224.93 7.50L227.90 7.50L228.71 1.55L232.24 1.55L232.24 7.50L237.11 7.50L237.11 11.42L232.24 11.42L232.24 17.96Q232.24 20.13 233.01 20.85Q233.78 21.57 235.50 21.32L235.50 21.32Q235.99 21.29 236.37 21.13Q236.75 20.98 236.97 20.91L236.97 20.91ZM239.59 7.50L244.28 7.50L244.28 25L239.59 25L239.59 7.50ZM241.97 5.08L241.97 5.08Q240.92 5.08 240.19 4.35Q239.45 3.61 239.45 2.56L239.45 2.56Q239.45 1.55 240.19 0.81Q240.92 0.08 241.97 0.08L241.97 0.08Q242.99 0.08 243.72 0.81Q244.46 1.55 244.46 2.56L244.46 2.56Q244.46 3.61 243.72 4.35Q242.99 5.08 241.97 5.08ZM256.53 25.45L256.53 25.45Q253.42 25.45 251.33 24.27Q249.25 23.07 248.22 20.99Q247.19 18.91 247.19 16.25L247.19 16.25Q247.19 13.62 248.22 11.54Q249.25 9.46 251.33 8.25Q253.42 7.04 256.53 7.04L256.53 7.04Q259.61 7.04 261.69 8.25Q263.78 9.46 264.79 11.54Q265.81 13.62 265.81 16.25L265.81 16.25Q265.81 18.91 264.79 20.99Q263.78 23.07 261.69 24.27Q259.61 25.45 256.53 25.45ZM256.53 21.32L256.53 21.32Q258.04 21.32 259.07 20.77Q260.10 20.20 260.61 19.09Q261.12 17.96 261.12 16.25L261.12 16.25Q261.12 14.57 260.61 13.45Q260.10 12.33 259.07 11.75Q258.04 11.17 256.53 11.17L256.53 11.17Q254.99 11.17 253.96 11.75Q252.93 12.33 252.40 13.45Q251.88 14.57 251.88 16.25L251.88 16.25Q251.88 17.96 252.40 19.09Q252.93 20.20 253.96 20.77Q254.99 21.32 256.53 21.32ZM287.54 25.14L282.85 25.14L282.85 16.25Q282.85 13.80 282.05 12.49Q281.24 11.17 278.93 11.17L278.93 11.17Q277.53 11.17 276.36 12.00Q275.19 12.82 274.50 14.17Q273.82 15.51 273.82 17.16L273.82 17.16L273.82 25.14L269.17 25.14L269.17 7.64L273.82 7.64L273.82 10.19Q274.49 9.49 275.33 8.76Q276.17 8.02 277.27 7.55Q278.37 7.08 279.88 7.08L279.88 7.08Q282.78 7.08 284.46 8.25Q286.14 9.42 286.84 11.47Q287.54 13.52 287.54 16.14L287.54 16.14L287.54 25.14Z"/></g>
        
      </svg>
    